<svg width="491" height="177" viewBox="0 0 491 177" fill="none" xmlns="http://www.w3.org/2000/svg">
<path fill-rule="evenodd" clip-rule="evenodd" d="M123.525 112.987C123.684 111.959 124.498 111.175 125.629 111.175C126.156 111.175 126.754 111.347 127.384 111.741C162.337 133.642 205.578 146.837 250.231 146.837C280.366 146.837 313.474 140.099 343.944 126.179C348.536 124.088 352.383 129.436 347.891 133.028C320.71 154.618 281.305 166.107 247.373 166.107C199.823 166.107 157.004 147.172 124.589 115.661C123.953 115.044 123.619 114.367 123.525 113.732V112.987Z" fill="#00AAE1"/>
<path fill-rule="evenodd" clip-rule="evenodd" d="M325.47 116.391C333.507 110.328 344.193 108.305 353.054 108.305C361.341 108.305 368.035 110.077 369.46 111.973C372.455 115.928 368.689 143.346 354.101 156.423C351.869 158.448 349.746 157.357 350.73 154.715C354.01 145.945 361.35 126.252 357.871 121.478C354.397 116.693 334.89 119.198 326.143 120.327C324.787 120.499 324.016 119.945 323.903 119.119V118.674C323.995 117.958 324.503 117.122 325.47 116.391Z" fill="#00AAE1"/>
<path fill-rule="evenodd" clip-rule="evenodd" d="M461.198 89.1996C454.054 89.1996 448.47 87.0357 444.447 82.7079C440.424 78.3801 438.413 72.3429 438.413 64.5963C438.413 56.909 440.424 50.9019 444.447 46.5751C448.47 42.2473 454.054 40.0834 461.198 40.0834C468.344 40.0834 473.927 42.2473 477.95 46.5751C481.972 50.9019 483.984 56.909 483.984 64.5963C483.984 72.3429 481.972 78.3801 477.95 82.7079C473.927 87.0357 468.344 89.1996 461.198 89.1996ZM461.198 79.0306C467.502 79.0306 470.656 74.2192 470.656 64.5963C470.656 55.0327 467.502 50.2514 461.198 50.2514C454.894 50.2514 451.742 55.0327 451.742 64.5963C451.742 74.2192 454.894 79.0306 461.198 79.0306ZM411.53 68.739C408.18 68.739 405.267 68.4163 402.802 67.7637C403.151 71.7395 404.346 74.5912 406.374 76.3097C408.402 78.0271 411.471 78.8899 415.586 78.8899C417.227 78.8899 418.832 78.7853 420.392 78.5751C421.945 78.372 424.107 77.9075 426.87 77.2016C427.04 77.1423 427.219 77.097 427.398 77.0668C427.576 77.0367 427.717 77.0216 427.836 77.0216C428.839 77.0216 429.336 77.7043 429.336 79.0699V83.1674C429.336 84.1126 429.202 84.7803 428.943 85.1704C428.675 85.5525 428.163 85.8984 427.398 86.191C423.103 87.8491 418.55 88.6817 413.729 88.6817C406.442 88.6817 400.847 86.6707 396.94 82.6264C393.032 78.5902 391.079 72.8054 391.079 65.2649C391.079 57.5515 393.077 51.4972 397.073 47.1071C401.07 42.7109 406.62 40.5128 413.729 40.5128C419.196 40.5128 423.475 41.8481 426.557 44.5188C429.641 47.1905 431.186 50.7541 431.186 55.2036C431.186 59.6601 429.522 63.0286 426.209 65.3102C422.888 67.5978 417.993 68.739 411.53 68.739ZM412.763 49.5083C407.117 49.5083 403.856 53.0125 402.98 60.0131C405.327 60.4927 407.942 60.726 410.824 60.726C413.817 60.726 415.994 60.2675 417.346 59.3454C418.698 58.4293 419.375 57.0186 419.375 55.1211C419.375 51.3766 417.168 49.5083 412.763 49.5083ZM355.882 88.8356C351.981 88.8356 348.588 87.822 345.706 85.7948C342.824 83.7667 340.618 80.9532 339.087 77.3514C337.555 73.7506 336.79 69.5897 336.79 64.8688C336.79 57.3635 338.56 51.3564 342.103 46.8476C345.645 42.3378 350.329 40.0834 356.153 40.0834C360.896 40.0834 365.009 41.4449 368.492 44.1689V22.9251C368.492 22.0774 368.672 21.4872 369.032 21.1543C369.392 20.8215 369.963 20.6556 370.743 20.6556H379.389C380.229 20.6556 380.815 20.8215 381.145 21.1543C381.475 21.4872 381.64 22.0774 381.64 22.9251V85.5676C381.64 86.3549 381.475 86.9291 381.145 87.2931C380.815 87.6561 380.229 87.8371 379.389 87.8371H372.184C371.463 87.8371 370.908 87.6862 370.517 87.3836C370.128 87.0809 369.842 86.5661 369.662 85.8401L369.122 83.7516C365.399 87.1413 360.987 88.8356 355.882 88.8356ZM360.206 78.8497C363.088 78.8497 365.85 78.002 368.492 76.3077V52.3398C365.91 50.8265 362.937 50.0704 359.575 50.0704C356.393 50.0704 354.022 51.2659 352.461 53.6561C350.9 56.0472 350.119 59.6631 350.119 64.5048C350.119 69.3474 350.944 72.9482 352.596 75.3092C354.247 77.6692 356.783 78.8497 360.206 78.8497ZM317.248 87.8371C316.467 87.8371 315.897 87.6561 315.536 87.2931C315.176 86.9291 314.996 86.3549 314.996 85.5676V43.7154C314.996 42.8678 315.176 42.2775 315.536 41.9447C315.897 41.6118 316.467 41.4449 317.248 41.4449H325.894C326.734 41.4449 327.32 41.6118 327.65 41.9447C327.98 42.2775 328.145 42.8678 328.145 43.7154V85.5676C328.145 86.3549 327.98 86.9291 327.65 87.2931C327.32 87.6561 326.734 87.8371 325.894 87.8371H317.248ZM321.571 34.2735C319.289 34.2735 317.457 33.638 316.077 32.367C314.696 31.096 314.006 29.3705 314.006 27.1915C314.006 25.0136 314.696 23.2881 316.077 22.0171C317.457 20.7461 319.289 20.1106 321.571 20.1106C323.852 20.1106 325.684 20.7461 327.064 22.0171C328.445 23.2881 329.136 25.0136 329.136 27.1915C329.136 29.3705 328.445 31.096 327.064 32.367C325.684 33.638 323.852 34.2735 321.571 34.2735ZM281.52 87.8371C280.919 87.8371 280.424 87.7617 280.034 87.6108C279.645 87.4603 279.303 87.2095 279.043 86.8838C278.773 86.551 278.518 86.0824 278.278 85.4771L262.877 45.0769C262.719 44.656 262.569 44.2323 262.427 43.8059C262.314 43.4847 262.253 43.1477 262.247 42.8074C262.247 41.8994 262.848 41.4449 264.048 41.4449H273.054C274.014 41.4449 274.72 41.6269 275.171 41.9899C275.621 42.3529 275.966 42.9583 276.206 43.8059L285.482 75.9447L294.939 43.8059C295.179 42.9583 295.524 42.3529 295.975 41.9899C296.425 41.6269 297.13 41.4449 298.091 41.4449H306.827C308.029 41.4449 308.628 41.8994 308.628 42.8074C308.628 43.1101 308.569 43.4429 308.448 43.8059C308.328 44.1689 308.178 44.5922 307.998 45.0769L292.598 85.4771C292.357 86.0824 292.102 86.551 291.832 86.8838C291.582 87.2011 291.257 87.451 290.887 87.6108C290.526 87.7617 290.016 87.8371 289.355 87.8371H281.52Z" fill="white"/>
<path fill-rule="evenodd" clip-rule="evenodd" d="M221.794 68.8849C218.357 68.8849 215.369 68.555 212.839 67.8894C213.197 71.9467 214.424 74.8547 216.505 76.6073C218.585 78.361 221.733 79.2408 225.955 79.2408C227.64 79.2408 229.286 79.1332 230.887 78.919C232.48 78.7129 234.697 78.2383 237.533 77.5183C237.709 77.4575 237.89 77.4114 238.073 77.3806C238.256 77.3504 238.401 77.3343 238.523 77.3343C239.552 77.3343 240.063 78.0312 240.063 79.4248V83.6038C240.063 84.5681 239.925 85.2489 239.658 85.647C239.385 86.0372 238.858 86.3901 238.073 86.6878C233.668 88.3801 228.997 89.2297 224.05 89.2297C216.574 89.2297 210.834 87.1785 206.826 83.0528C202.816 78.9341 200.813 73.0337 200.813 65.3404C200.813 57.4721 202.863 51.2951 206.963 46.8175C211.063 42.3318 216.757 40.0895 224.05 40.0895C229.66 40.0895 234.05 41.452 237.213 44.177C240.375 46.9019 241.961 50.5379 241.961 55.0769C241.961 59.6229 240.253 63.0598 236.854 65.3866C233.447 67.7215 228.425 68.8849 221.794 68.8849ZM223.059 49.267C217.267 49.267 213.921 52.8416 213.022 59.9829C215.43 60.4726 218.113 60.7099 221.07 60.7099C224.142 60.7099 226.375 60.2433 227.762 59.3011C229.149 58.368 229.842 56.9291 229.842 54.9924C229.842 51.1724 227.579 49.267 223.059 49.267ZM134.789 45.9065C137.982 43.7858 140.864 42.2856 143.424 41.4128C145.972 40.5341 148.648 40.0865 151.343 40.0885C156.77 40.0885 160.595 42.0332 162.828 45.9065C165.9 43.8471 168.796 42.362 171.509 41.459C174.218 40.5476 177.058 40.0847 179.916 40.0885C184.138 40.0885 187.407 41.275 189.732 43.633C192.049 45.998 193.215 49.2971 193.215 53.5374V85.6008C193.215 86.3891 193.047 86.9633 192.72 87.3233C192.384 87.6903 191.797 87.8662 190.952 87.8662H182.271C181.486 87.8662 180.914 87.6903 180.556 87.3233C180.191 86.9633 180.007 86.3891 180.007 85.6008V56.4454C180.007 52.3278 178.171 50.2685 174.489 50.2685C171.235 50.2685 167.95 51.0498 164.635 52.6264V85.6008C164.635 86.3891 164.467 86.9633 164.14 87.3233C163.804 87.6903 163.217 87.8662 162.371 87.8662H153.69C152.905 87.8662 152.334 87.6903 151.975 87.3233C151.61 86.9633 151.435 86.3891 151.435 85.6008V56.4454C151.435 52.3278 149.59 50.2685 145.917 50.2685C142.54 50.2685 139.225 51.0799 135.963 52.7179V85.6008C135.963 86.3891 135.796 86.9633 135.467 87.3233C135.132 87.6903 134.546 87.8662 133.707 87.8662H125.018C124.241 87.8662 123.661 87.6903 123.304 87.3233C122.946 86.9633 122.763 86.3891 122.763 85.6008V43.7245C122.763 42.8748 122.946 42.2856 123.304 41.9567C123.661 41.6199 124.241 41.459 125.018 41.459H131.534C132.922 41.459 133.761 42.1247 134.066 43.457L134.789 45.9065ZM98.3598 43.7265C98.3598 42.8768 98.5429 42.2876 98.9012 41.9578C99.2675 41.6209 99.8392 41.453 100.624 41.453H109.304C110.151 41.453 110.737 41.6209 111.065 41.9578C111.401 42.2876 111.569 42.8768 111.569 43.7265V85.5948C111.569 86.3831 111.401 86.9643 111.065 87.3243C110.737 87.6842 110.151 87.8683 109.304 87.8683H100.624C99.8392 87.8683 99.2675 87.6842 98.9012 87.3243C98.5429 86.9643 98.3598 86.3831 98.3598 85.5948V43.7265ZM104.961 34.2805C102.666 34.2805 100.829 33.645 99.4426 32.3751C98.0558 31.097 97.3695 29.3745 97.3695 27.1925C97.3695 25.0116 98.0558 23.2891 99.4426 22.0191C100.829 20.7481 102.666 20.1126 104.961 20.1126C107.254 20.1126 109.091 20.7481 110.479 22.0191C111.866 23.2891 112.559 25.0116 112.559 27.1925C112.559 29.3745 111.866 31.097 110.479 32.3751C109.091 33.645 107.254 34.2805 104.961 34.2805ZM74.7005 48.358C77.1088 45.6943 79.3873 43.8039 81.5289 42.6787C83.6337 41.5698 85.9788 40.9942 88.3582 41.0025H89.6233C90.4686 41.0025 91.0715 41.1714 91.4298 41.5002C91.7951 41.8371 91.9702 42.4263 91.9702 43.268V50.8999C91.9702 51.6883 91.8102 52.2624 91.475 52.6294C91.147 52.9894 90.5602 53.1724 89.7149 53.1724C89.2881 53.1724 88.7467 53.1423 88.0835 53.0809C87.2419 53.0129 86.3977 52.9824 85.5534 52.9894C84.1656 52.9894 82.4819 53.1885 80.4852 53.5787C78.4956 53.9769 76.8109 54.4736 75.4241 55.0789V85.5958C75.4241 86.3841 75.257 86.9583 74.9289 87.3263C74.5938 87.6852 74.0071 87.8693 73.1607 87.8693H64.4796C63.6946 87.8693 63.123 87.6852 62.7647 87.3263C62.3994 86.9583 62.2162 86.3841 62.2162 85.5958V43.7275C62.2162 42.8778 62.3994 42.2886 62.7647 41.9517C63.123 41.6229 63.6946 41.454 64.4796 41.454H70.9889C72.3757 41.454 73.2221 42.1206 73.527 43.452L74.7005 48.358ZM8.05115 43.7235C8.05115 42.8818 8.23431 42.2926 8.60064 41.9557C8.95891 41.6189 9.53054 41.458 10.3155 41.458H16.8309C18.2187 41.458 19.0571 42.1237 19.362 43.456L19.994 45.813C21.8005 44.0603 23.9884 42.6677 26.5486 41.634C29.1099 40.6083 31.7235 40.0955 34.3764 40.0955C40.2215 40.0955 44.8479 42.2463 48.2545 46.541C51.6611 50.8426 53.369 56.6516 53.369 63.9849C53.369 69.0055 52.5226 73.3987 50.8379 77.1493C49.1462 80.908 46.8526 83.8009 43.9633 85.822C41.0679 87.8582 37.7518 88.8677 34.01 88.8677C31.5403 88.8677 29.1854 88.4776 26.9603 87.6893C24.7271 86.9009 22.829 85.814 21.259 84.4213V104.307C21.259 105.156 21.092 105.746 20.7639 106.082C20.4288 106.411 19.842 106.58 18.9957 106.58H10.3155C9.53054 106.58 8.95891 106.411 8.60064 106.082C8.23431 105.746 8.05115 105.156 8.05115 104.307V43.7235ZM30.1233 50.0844C26.9904 50.0844 24.0337 50.903 21.259 52.5339V76.4223C23.9119 78.0603 26.8687 78.8798 30.1233 78.8798C33.4998 78.8798 35.9846 77.7315 37.5847 75.4278C39.1849 73.1232 39.985 69.4952 39.985 64.5279C39.985 59.4992 39.2 55.8401 37.63 53.5364C36.0601 51.2328 33.5602 50.0844 30.1233 50.0844Z" fill="#00AAE1"/>
</svg>
